<svg xmlns="http://www.w3.org/2000/svg" xmlns:xlink="http://www.w3.org/1999/xlink" width="119.501" height="32" xmlns:v="https://vecta.io/nano"><path d="M59.704 6.597h2a1.1 1.1 0 0 1 1.029.706l6.736 17.516h-3.6l-1.423-3.754h-7.439l-1.482 3.754H51.92l6.755-17.516a1.1 1.1 0 0 1 1.029-.705m1.024 4.831l-2.445 6.256h4.876zm11.44-3.73a1.1 1.1 0 0 1 1.1-1.1h3.007a13.54 13.54 0 0 1 5.9.985 7.7 7.7 0 0 1 3.181 3.2 10.37 10.37 0 0 1 1.249 5.178 10.42 10.42 0 0 1-.7 3.871 8.03 8.03 0 0 1-1.931 2.93 6.82 6.82 0 0 1-2.668 1.61 19 19 0 0 1-4.975.446h-3.069a1.1 1.1 0 0 1-1.1-1.1zm3.444 2.242v11.5h1.61a8.06 8.06 0 0 0 3.45-.545 4.13 4.13 0 0 0 1.753-1.835c.483-.987.717-2.077.682-3.175a6.04 6.04 0 0 0-1.622-4.5q-1.462-1.438-4.7-1.438zm29.941 12.215l3.172 4.1h-4.107l-1.611-2.073c-3.733 1.951-8.302 1.248-11.275-1.736a9.4 9.4 0 0 1-2.717-6.745c-.027-3.411 1.783-6.572 4.738-8.275 1.44-.849 3.082-1.294 4.754-1.288a9.06 9.06 0 0 1 6.663 2.8 9.32 9.32 0 0 1 2.783 6.825 9.27 9.27 0 0 1-2.4 6.393m-2.168-2.8a6.32 6.32 0 0 0 1.1-3.617c.034-1.642-.596-3.229-1.748-4.4a5.67 5.67 0 0 0-4.229-1.809c-1.609-.039-3.161.6-4.277 1.759a6.12 6.12 0 0 0-1.724 4.472c-.076 1.848.73 3.622 2.172 4.781 1.084.899 2.451 1.387 3.859 1.375a5.7 5.7 0 0 0 2.333-.484l-1.881-2.42a1.1 1.1 0 0 1 .87-1.779h1.344a1.1 1.1 0 0 1 .872.428zm7.148-12.76h7.865a1.1 1.1 0 0 1 1.1 1.1v2.319h-3.32v14.8h-3.512v-14.8h-3.233V7.699a1.1 1.1 0 0 1 1.1-1.1" fill="#021859"/><path d="M5.463 19.727l.016-.016a1.23 1.23 0 0 1 1.742 0l.016.016a1.23 1.23 0 0 1 0 1.742l-.018.018a1.23 1.23 0 0 1-1.74-.002l-.017-.017a1.23 1.23 0 0 1 .001-1.741z" fill="#6d7894"/><path d="M5.461 10.781l.017-.017a1.23 1.23 0 0 1 1.742-.002l.016.016a1.23 1.23 0 0 1 .002 1.742l-.018.018a1.23 1.23 0 0 1-1.74 0l-.018-.018a1.23 1.23 0 0 1-.001-1.739z" fill="#ff9a16"/><use xlink:href="#B" fill="#db2323"/><g fill="#6d7894"><rect width="3.42" height="3.42" rx="1.231" transform="matrix(.707107 -.707107 .707107 .707107 7.145 15.992)"/><use xlink:href="#C"/><use xlink:href="#C" y="-8.948"/></g><path d="M19.69 15.413l-1-1a.82.82 0 0 0-1.157 0l-1 1a.82.82 0 0 0 0 1.158l1 1c.153.154.361.24.579.24s.425-.086.578-.24l1-1a.82.82 0 0 0 0-1.158" fill="#2c51c2"/><use xlink:href="#D" fill="#1fa531"/><g fill="#6d7894"><use xlink:href="#D" x="-7.556"/><use xlink:href="#B" x="6.991" y="-0.033"/><use xlink:href="#C" x="-11.783" y="-4.573"/></g><g fill="#021859"><path d="M21.702 0h-3.273v3.273h2.364a.91.91 0 0 1 .91.91v23.55a.91.91 0 0 1-.91.91h-2.364v3.273h5.638a.91.91 0 0 0 .909-.91V.91a.91.91 0 0 0-.266-.643.91.91 0 0 0-.643-.267z"/><rect width="4.173" height="4.173" rx="1.231" transform="matrix(.707107 -.707107 .707107 .707107 27.968 29.049)"/><path d="M35.772 22.401a.82.82 0 0 0-1.158 0l-1.793 1.793a.8.8 0 0 0-.132.181h-4.734a.78.78 0 0 0-.133-.181l-.6-.6a.81.81 0 0 0-.609-.237v2.831a.81.81 0 0 0 .609-.237l.6-.6c.053-.054.097-.115.133-.182h4.734c.035.066.08.128.132.182l1.793 1.793a.82.82 0 0 0 1.158 0l1.793-1.793a.82.82 0 0 0 0-1.158zm-6.53-10.173l1 1a.82.82 0 0 0 1.157 0l1-1a.81.81 0 0 0 .133-.181h4.535a.8.8 0 0 0 .132.181l1.793 1.793a.82.82 0 0 0 1.158 0l1.793-1.793a.82.82 0 0 0 0-1.158L40.15 9.277a.82.82 0 0 0-1.158 0l-1.794 1.794c-.052.054-.097.116-.132.182h-4.538a.85.85 0 0 0-.133-.182l-1-1c-.153-.154-.361-.24-.578-.24s-.425.086-.578.24l-1 1c-.052.054-.097.116-.132.182h-2.5v.8h2.5a.8.8 0 0 0 .132.181m10.908 5.793a.82.82 0 0 0-1.158 0l-1.791 1.793a.81.81 0 0 0-.212.38h-4.458a.8.8 0 0 0-.133-.181l-1-1a.82.82 0 0 0-1.158 0l-1 1a.82.82 0 0 0-.132.181h-2.5v.8h2.5a.84.84 0 0 0 .132.181l1 1a.82.82 0 0 0 1.158 0l1-1c.052-.054.097-.115.133-.181h4.686l1.775 1.775a.82.82 0 0 0 1.158 0l1.793-1.793a.82.82 0 0 0 0-1.158z"/><path d="M46.315 15.441l-1.793-1.793a.82.82 0 0 0-1.158 0l-1.793 1.793a.8.8 0 0 0-.132.181h-4.274a.8.8 0 0 0-.132-.181l-1.261-1.261a.82.82 0 0 0-1.158 0l-1.26 1.261c-.053.054-.097.115-.133.181h-4.869a.8.8 0 0 0-.132-.181l-1-1c-.161-.16-.381-.246-.608-.237v3.637c.227.009.447-.077.608-.237l1-1c.052-.054.097-.116.132-.182h4.869c.036.067.08.128.133.182l1.261 1.261a.82.82 0 0 0 1.158 0l1.261-1.261c.052-.054.097-.116.132-.182h4.272c.035.066.08.128.132.182l1.793 1.793a.82.82 0 0 0 1.158 0l1.793-1.793a.82.82 0 0 0 0-1.158"/><rect width="4.173" height="4.173" rx="1.231" transform="matrix(.707107 -.707107 .707107 .707107 27.968 2.999)"/><path d="M27.822 7.85a.8.8 0 0 0 .132-.181h4.735a.8.8 0 0 0 .132.181l1.794 1.8a.82.82 0 0 0 1.158 0l1.793-1.8a.82.82 0 0 0 0-1.158l-1.794-1.79a.82.82 0 0 0-1.158 0l-1.793 1.794c-.052.054-.097.116-.132.182h-4.735c-.035-.066-.08-.128-.132-.182l-.6-.6a.81.81 0 0 0-.608-.237V8.69c.227.009.447-.077.608-.237z"/></g><defs ><path id="B" d="M10.235 23.904l.016-.016a1.23 1.23 0 0 1 1.742-.002l.016.016a1.23 1.23 0 0 1 .002 1.742l-.018.018a1.23 1.23 0 0 1-1.74 0l-.017-.017a1.23 1.23 0 0 1-.001-1.741z"/><path id="C" d="M12.653 19.696l.414-.414a1.23 1.23 0 0 1 1.741 0l.414.414a1.23 1.23 0 0 1 0 1.741l-.415.415a1.23 1.23 0 0 1-1.739 0l-.415-.415a1.23 1.23 0 0 1 0-1.741z"/><path id="D" d="M17.225 6.374l.017-.017a1.23 1.23 0 0 1 1.742-.002l.017.017a1.23 1.23 0 0 1 .001 1.739l-.018.018a1.23 1.23 0 0 1-1.739.001l-.018-.018a1.23 1.23 0 0 1-.001-1.739z"/></defs></svg>