<svg xmlns="http://www.w3.org/2000/svg" xmlns:xlink="http://www.w3.org/1999/xlink" width="80" height="80" viewBox="0 0 80 80"><defs><clipPath id="a"><circle cx="40" cy="40" r="40" transform="translate(654 224)" fill="#db2323" opacity="0.1"/></clipPath></defs><g transform="translate(-654 -224)"><path d="M6994.757-9543.46l.117-1.722,1.7-.378s1.747.2,1.786.222.365,1.591.365,1.591l1.682.222.1,8.462-1.226.561-5.815-.1-.574-.9.118-8.11Z" transform="translate(-6286.478 9823.396)" fill="#fff"/><circle cx="40" cy="40" r="40" transform="translate(654 224)" fill="#db2323" opacity="0.1"/><g clip-path="url(#a)"><g transform="translate(-256.871 63.129)"><g transform="translate(921.871 177.871)" fill="#fff" stroke="#cfdbe8" stroke-width="1"><rect width="58" height="68" rx="4" stroke="none"/><rect x="0.5" y="0.5" width="57" height="67" rx="3.5" fill="none"/></g><rect width="37" height="3" rx="1.5" transform="translate(926.871 183.871)" fill="#ecf0f5"/><rect width="7" height="3" rx="1.5" transform="translate(967.871 183.871)" fill="#ecf0f5"/><rect width="37" height="3" rx="1.5" transform="translate(926.871 190.871)" fill="#ecf0f5"/><rect width="17" height="3" rx="1.5" transform="translate(926.871 197.871)" fill="#ecf0f5"/></g></g><g transform="translate(682 272)"><path d="M21,4H17.9A5.009,5.009,0,0,0,13,0H11A5.009,5.009,0,0,0,6.1,4H3A1,1,0,0,0,3,6H4V19a5.006,5.006,0,0,0,5,5h6a5.006,5.006,0,0,0,5-5V6h1a1,1,0,0,0,0-2ZM11,2h2a3.006,3.006,0,0,1,2.829,2H8.171A3.006,3.006,0,0,1,11,2Zm7,17a3,3,0,0,1-3,3H9a3,3,0,0,1-3-3V6H18Z" fill="#db2323"/><path d="M10,18a1,1,0,0,0,1-1V11a1,1,0,0,0-2,0v6A1,1,0,0,0,10,18Z" fill="#db2323"/><path d="M14,18a1,1,0,0,0,1-1V11a1,1,0,0,0-2,0v6A1,1,0,0,0,14,18Z" fill="#db2323"/></g></g></svg>