<svg xmlns="http://www.w3.org/2000/svg" xmlns:xlink="http://www.w3.org/1999/xlink" width="289.627" height="152.496" xmlns:v="https://vecta.io/nano"><style><![CDATA[.B{fill:none}.C{fill:#fff}.D{fill:#cfdbe8}.E{opacity:.129}.F{stroke:#2c51c2}.G{stroke:none}.H{fill:#f2f9fe}]]></style><defs><clipPath id="A"><path d="M0 0h160.827v3.762H0z" class="B"/></clipPath><clipPath id="B"><path d="M0 0h118.937v65.43H0z" class="B"/></clipPath><clipPath id="C"><path d="M0 0h16.017v4.921H0z" class="B"/></clipPath><clipPath id="D"><path d="M0 0h21.967v14.684H0z" class="B"/></clipPath><clipPath id="E"><path d="M0 0h9.886v9.154H0z" class="B"/></clipPath><clipPath id="F"><path d="M0 0h6.934v15.412H0z" class="B"/></clipPath><clipPath id="G"><path d="M0 0h18.956v41.016H0z" class="B"/></clipPath><path id="H" d="M215.942 33.568H55.47c-.257-.001-.465-.209-.466-.466v-9.978c.001-.257.209-.465.466-.466h160.472c.257.001.465.209.466.466v9.978c-.001.257-.209.465-.466.466m-160-.933h159.533v-9.043H55.938z"/><path id="I" d="M0 21.961v-7.5c0-.257.435-.466.973-.466h74.941c.538 0 .973.209.973.466v7.5c0 .258-.435.467-.973.467H.973c-.538 0-.973-.209-.973-.467m1.944-7.028v6.562h74v-6.561z"/><path id="J" d="M0 21.961v-7.5c.001-.258.209-.466.467-.466h7.27c.257 0 .466.209.466.466v7.5c0 .124-.049.243-.136.33s-.206.137-.33.137H.467c-.258 0-.467-.209-.467-.467m.932-7.027v6.562h6.339v-6.562z"/></defs><path d="M215.942 126.018H55.47c-.257-.001-.465-.209-.466-.466V26.153c.001-.257.209-.465.466-.466h160.472c.257.001.465.209.466.466v99.4c-.001.257-.209.465-.466.466m-160-.934h159.533V26.62H55.938z"/><path d="M55.471 23.125h160.471v9.978H55.471zm0 10.224h160.471v9.978H55.471z" class="C"/><use xlink:href="#H"/><g class="C"><path d="M178.5 118.291h-94v-85h94v85z"/><path d="M85 33.791v84h93v-84H85m-1-1h95v86H84v-86z" fill="#000"/></g><use xlink:href="#H" y="10.224"/><g class="E"><g clip-path="url(#A)" transform="translate(55.216 32.882)"><path d="M160.25.476a1.18 1.18 0 0 0-.6-.162l-.478.061.314-.043a10.37 10.37 0 0 1-2.3 0l-6.311-.156-8.639-.06-10.209.356-9.986.018c-4.381-.009-8.761.141-13.142.131-2.526-.007-5.042-.311-7.568-.243l-15.34.433-15.093.023c-3.64 0-7.276-.19-10.915-.176-3.906.083-7.811.362-11.72.3-3.51-.037-7.01-.311-10.511-.528-3.181-.088-6.359.049-9.54.1q-4.977.039-9.957-.024L8.073-.003c-1.432 0-2.862.09-4.294.12-.794.02-1.587.073-2.38.136-.156-.007-.31.027-.448.1-.367.144-.629.473-.689.862a.98.98 0 0 0-.182.8c-.144.324-.115.699.077.997s.52.48.875.485c1.542.074 3.086.062 4.628.116 1.587.061 3.173.174 4.763.147 3.236-.1 6.465-.4 9.706-.387 4.368.09 8.736-.111 13.105-.121 3.634.121 7.269.334 10.906.247.8-.031 1.6-.089 2.4-.141l1.729.059c3.951.113 7.9-.143 11.848-.2l16.428.235c2.94.014 5.877-.12 8.818-.095l9.226-.226c3.092-.059 6.182-.232 9.276-.193 3.2.153 6.393.143 9.59.215 3.379.1 6.759-.081 10.139-.032 2.626.035 5.252-.058 7.879-.042 2.026-.046 4.043-.26 6.068-.29 2.786-.082 5.57-.191 8.356-.1 2.044-.008 4.088-.037 6.131.073s5.314-.02 6.238-.029a11.5 11.5 0 0 0 1.278-.042c.349.012.688-.117.942-.357a1.2 1.2 0 0 0-.24-1.857"/></g></g><rect width="6.444" height="6.444" rx="2" transform="matrix(-.707502 -.706712 .706712 -.707502 17.876 80.408)" class="H"/><rect width="6.444" height="6.444" rx="2" transform="matrix(-.706712 -.707502 .707502 -.706712 35.756 28.113)" fill="#1fa531" opacity=".1"/><rect width="6.444" height="6.444" rx="2" transform="matrix(-.706712 -.707502 .707502 -.706712 104.756 150.611)" class="H"/><rect width="6.444" height="6.444" rx="2" transform="matrix(-.706712 -.707502 .707502 -.706712 273.892 39.32)" fill="#cce9fb"/><rect width="6.444" height="6.444" rx="2" transform="matrix(-.706712 -.707502 .707502 -.706712 22.427 45.758)" fill="#db2323" opacity=".1"/><g class="H"><rect width="8.867" height="8.867" rx="2" transform="matrix(-.707107 -.707107 .707107 -.707107 216.409 17.098)"/><rect width="7.902" height="7.902" rx="2" transform="matrix(-.706872 -.707341 .707341 -.706872 37.302 65.614)"/><rect width="7.902" height="7.902" rx="2" transform="matrix(-.706872 -.707341 .707341 -.706872 18.902 24.588)"/><rect width="7.902" height="7.902" rx="2" transform="matrix(-.706872 -.707341 .707341 -.706872 284.038 62.611)"/></g><rect width="7.902" height="7.902" rx="2" transform="matrix(-.706872 -.707341 .707341 -.706872 5.586 62.611)" fill="#ff9a16" opacity=".1"/><rect width="6.444" height="6.444" rx="2" transform="matrix(-.706712 -.707502 .707502 -.706712 247.756 9.114)" fill="#1fa531" opacity=".1"/><g class="H"><rect width="6.444" height="6.444" rx="2" transform="matrix(-.706712 -.707502 .707502 -.706712 269.336 14.353)"/><rect width="6.444" height="6.444" rx="2" transform="matrix(-.706712 -.707502 .707502 -.706712 38.332 94.728)"/><rect width="7.902" height="7.902" rx="2" transform="matrix(-.706872 -.707341 .707341 -.706872 49.881 16.415)"/></g><g transform="translate(87.569 48.436)" clip-path="url(#B)"><path d="M0 7.961v-7.5c0-.257.435-.466.973-.466h74.941c.538 0 .973.209.973.466v7.5c0 .258-.435.467-.973.467H.973C.435 8.428 0 8.219 0 7.961M1.944.933v6.562h74V.934z"/><path d="M7.309.467v7.496H.466V.467z" class="D"/><path d="M0 7.961v-7.5C.001.203.209-.005.467-.005h7.27c.257 0 .466.209.466.466v7.5c0 .124-.049.243-.136.33s-.206.137-.33.137H.467C.209 8.428 0 8.219 0 7.961M.932.934v6.562h6.339V.934z"/><g class="F"><g class="C"><path d="M80.43.356h8v8h-8z" class="G"/><path d="M80.93.856h7v7h-7z" class="B"/></g><g class="B"><path d="M82.416 4.215h4.028"/><path d="M84.416 2.215v4"/></g></g><use xlink:href="#I"/><path d="M7.309 14.467v7.496H.466v-7.496z" class="D"/><use xlink:href="#J"/><g class="F"><g class="C"><path d="M80.43 14.356h8v8h-8z" class="G"/><path d="M80.93 14.856h7v7h-7z" class="B"/></g><g class="B"><path d="M82.416 18.215h4.028"/><path d="M84.416 16.215v4"/></g></g><path d="M0 35.961v-7.5c0-.257.435-.466.973-.466h74.941c.538 0 .973.209.973.466v7.5c0 .258-.435.467-.973.467H.973c-.538 0-.973-.209-.973-.467m1.944-7.028v6.562h74v-6.561z"/><path d="M7.309 28.467v7.496H.466v-7.496z" class="D"/><path d="M0 35.961v-7.5c.001-.258.209-.466.467-.466h7.27c.257 0 .466.209.466.466v7.5c0 .124-.049.243-.136.33s-.206.137-.33.137H.467c-.258 0-.467-.209-.467-.467m.932-7.027v6.562h6.339v-6.562z"/><g class="F"><g class="C"><path d="M80.43 28.356h8v8h-8z" class="G"/><path d="M80.93 28.856h7v7h-7z" class="B"/></g><g class="B"><path d="M82.416 32.215h4.028"/><path d="M84.416 30.215v4"/></g></g><path d="M0 49.961v-7.5c0-.257.435-.466.973-.466h74.941c.538 0 .973.209.973.466v7.5c0 .258-.435.467-.973.467H.973c-.538 0-.973-.209-.973-.467m1.944-7.028v6.562h74v-6.561z"/><path d="M7.309 42.467v7.496H.466v-7.496z" class="D"/><path d="M0 49.961v-7.5c.001-.258.209-.466.467-.466h7.27c.257 0 .466.209.466.466v7.5c0 .124-.049.243-.136.33s-.206.137-.33.137H.467c-.258 0-.467-.209-.467-.467m.932-7.027v6.562h6.339v-6.562z"/><g class="F"><g class="C"><path d="M80.43 42.356h8v8h-8z" class="G"/><path d="M80.93 42.856h7v7h-7z" class="B"/></g><g class="B"><path d="M82.416 46.215h4.028"/><path d="M84.416 44.215v4"/></g></g><path d="M0 63.961v-7.5c0-.257.435-.466.973-.466h74.941c.538 0 .973.209.973.466v7.5c0 .258-.435.467-.973.467H.973c-.538 0-.973-.209-.973-.467m1.944-7.028v6.562h74v-6.561z"/><path d="M7.309 56.467v7.496H.466v-7.496z" class="D"/><path d="M0 63.961v-7.5c.001-.258.209-.466.467-.466h7.27c.257 0 .466.209.466.466v7.5c0 .124-.049.243-.136.33s-.206.137-.33.137H.467c-.258 0-.467-.209-.467-.467m.932-7.027v6.562h6.339v-6.562z"/><g class="F"><g class="C"><path d="M80.43 56.356h8v8h-8z" class="G"/><path d="M80.93 56.856h7v7h-7z" class="B"/></g><g class="B"><path d="M82.416 60.215h4.028"/><path d="M84.416 58.215v4"/></g></g></g><path d="M245.841 56.526c.166 6.29 4.145 12.651 9.908 14.633 3.138 1.079 6.51.867 9.712 1.682s6.541 3.259 6.727 6.683c-.049.868-.019 1.738.092 2.6.553 2.28 3.213 3.046 5.292 3.961 11.01 4.842 5.367 16.865-5.815 20.93-5 1.817-7.191 2.131-12.516 1.361-5.259-.761-10.142-3.781-13.938-7.774a48.16 48.16 0 0 1-8.814-14.017c-2.57-5.871-4.483-12.373-3.369-18.6s6.057-11.907 12.722-11.461" class="D"/><path d="M263.759 109.228c-1.536-.024-3.069-.157-4.586-.4-5-.722-10.044-3.533-14.208-7.914a48.29 48.29 0 0 1-8.9-14.151c-3.282-7.5-4.363-13.493-3.4-18.864 1.092-6.1 6.092-12.32 13.21-11.843.24.016.428.212.434.452.168 6.378 4.2 12.353 9.594 14.206a24.44 24.44 0 0 0 5.292.979c1.475.128 2.94.359 4.383.692 3.267.832 6.876 3.412 7.076 7.108.018.335.007.667 0 .988-.041.51-.014 1.023.082 1.525.42 1.731 2.3 2.509 4.118 3.261l.91.384c4.132 1.817 6.34 4.823 6.22 8.464-.172 5.245-5.246 10.85-12.063 13.328a22.16 22.16 0 0 1-8.156 1.78m-18.65-52.263c-6.205 0-10.549 5.607-11.534 11.1-.928 5.182.133 11.005 3.338 18.328a47.41 47.41 0 0 0 8.725 13.883c4.021 4.23 8.874 6.941 13.667 7.634 5.394.779 7.468.415 12.291-1.338 6.476-2.354 11.292-7.6 11.452-12.485.108-3.283-1.851-5.9-5.665-7.582l-.891-.377c-1.938-.8-4.135-1.71-4.667-3.9a6.46 6.46 0 0 1-.107-1.775c.01-.315.019-.613 0-.906-.175-3.229-3.428-5.508-6.378-6.258a30.77 30.77 0 0 0-4.255-.669c-1.864-.137-3.706-.48-5.494-1.024-5.622-1.932-9.859-8.04-10.2-14.628h-.283"/><path d="M217.528 57.865c-1.062-1.246-3.759-.366-3.689 1.206.328 4.025-.828 8.031-3.25 11.262-1.417 1.98-3.308 3.787-4.537 5.827-1.309 2.325-2.001 4.947-2.01 7.615-.2 4.828.884 9.776 4.686 13.222s10.835 4.93 16.575 2.469c4.555-1.898 7.723-6.116 8.275-11.02.368-4.248-1.327-8.228-3.179-12.021-3.484-7.132-7.882-12.709-12.871-18.559" class="D"/><path d="M219.138 101.137a16.21 16.21 0 0 1-10.726-3.795c-3.45-3.127-5.077-7.7-4.839-13.586a15.92 15.92 0 0 1 2.076-7.835 27.41 27.41 0 0 1 2.63-3.457c.661-.779 1.344-1.585 1.928-2.4 2.358-3.148 3.482-7.05 3.158-10.97a2.19 2.19 0 0 1 1.561-2.056 2.62 2.62 0 0 1 2.947.528h0c5.522 6.477 9.613 11.857 12.935 18.656 1.842 3.773 3.61 7.828 3.224 12.266-.566 5.073-3.839 9.44-8.55 11.406a16.17 16.17 0 0 1-6.344 1.244m-3.035-43.4c-.285.002-.567.056-.832.159-.486.192-1 .594-.973 1.15.34 4.13-.846 8.241-3.333 11.556-.606.848-1.3 1.668-1.975 2.462a26.88 26.88 0 0 0-2.543 3.335c-1.273 2.256-1.943 4.802-1.943 7.393-.228 5.6 1.3 9.927 4.534 12.861a15.93 15.93 0 0 0 16.079 2.386 13.11 13.11 0 0 0 7.994-10.633c.366-4.2-1.347-8.121-3.133-11.777-3.278-6.712-7.331-12.04-12.806-18.462-.276-.292-.667-.448-1.068-.426"/><path d="M227.993 91.646a105.29 105.29 0 0 0-1.159-14.166 20.2 20.2 0 0 1 5.743-2.061 3.4 3.4 0 0 1 2.631.259c.416.361.733.821.924 1.338l4.746 10.2c.419.629.27 1.477-.34 1.925-3.209 3.445-8.261 4.452-12.545 2.5" class="C"/><path d="M232.497 93.113c-1.627.006-3.234-.352-4.705-1.048-.162-.078-.265-.241-.265-.421a104.53 104.53 0 0 0-1.156-14.1c-.025-.191.071-.378.24-.47 1.84-.997 3.821-1.708 5.875-2.107a3.81 3.81 0 0 1 3 .34 3.7 3.7 0 0 1 1.071 1.517l4.747 10.2a1.86 1.86 0 0 1-.416 2.432c-2.155 2.347-5.2 3.676-8.386 3.661m-4.04-1.766c4.054 1.683 8.727.681 11.734-2.516a1.49 1.49 0 0 0 .458-.8c-.02-.216-.086-.426-.194-.614l-4.746-10.2a2.95 2.95 0 0 0-.777-1.159c-.704-.35-1.517-.414-2.267-.177a19.64 19.64 0 0 0-5.329 1.863c.668 4.507 1.043 9.053 1.122 13.609"/><path d="M283.898 129.278c-2.02-8.3-10.592-28.9-17.758-35.918-5.407-5.3-17.978-7.317-25.822-7.835-1.323 3.279-5.114 6.911-8.53 6.532-1.968-.336-3.657-1.591-4.549-3.377-6.116 3.105-12.361 6.307-17.141 11.41-6.835 7.293-9.988 19.006-12.842 29.264 6.784-.285 12.925.41 19.71.125 3.632-.153 8.086-.514 11.721-.512 11.8.006 57.538 9.867 55.212.31m-74.762-76.759c1.317 4.01 2.957 8.169 2.662 12.464-.161 2.342 2.023 13.685 11.74 15.208 5.398.845 10.888-.81 14.919-4.5 2.969-2.66 5.852-9.737 3.867-15.851 2.917.249 5.307-2.136 4.871-4.635a3.49 3.49 0 0 0-3.834-2.547c-.912.074-1.745.544-2.281 1.286-1.298-2.915-2.23-5.979-2.775-9.122-3.8-2.879-9.186-3.7-14.381-3.514a19.02 19.02 0 0 0-5.117.761c-4.736 1.515-11.024 6.336-9.672 10.455" class="C"/><path d="M226.384 80.879c-.977 0-1.952-.077-2.917-.229-9.8-1.537-12.33-12.809-12.131-15.7.253-3.681-.969-7.309-2.15-10.817l-.49-1.469h0c-.381-1.28-.219-2.661.448-3.818 1.655-3.242 6.142-6.142 9.524-7.224a19.69 19.69 0 0 1 5.242-.782c4.312-.158 10.362.339 14.679 3.608.094.071.157.176.177.292a37.69 37.69 0 0 0 2.468 8.369 4.01 4.01 0 0 1 4.726-.33 3.79 3.79 0 0 1 1.7 2.343 4.19 4.19 0 0 1-1.108 3.551 5.17 5.17 0 0 1-3.594 1.642c1.712 6.283-1.259 13.1-4.184 15.72a18.41 18.41 0 0 1-12.385 4.846m-16.81-28.508l.489 1.462c1.21 3.6 2.461 7.312 2.2 11.178-.11 1.6 1.547 13.181 11.348 14.718 5.263.838 10.619-.78 14.538-4.391 2.761-2.474 5.68-9.369 3.735-15.363-.048-.148-.018-.31.079-.432s.248-.187.403-.174a4.26 4.26 0 0 0 3.5-1.329 3.27 3.27 0 0 0 .877-2.763 2.89 2.89 0 0 0-1.291-1.725c-.57-.412-1.284-.575-1.977-.451-.82.052-1.572.474-2.044 1.146-.106.118-.264.173-.42.148s-.288-.128-.351-.273a39.09 39.09 0 0 1-2.775-9.046c-4.09-3.006-9.825-3.463-13.938-3.311-1.69.021-3.369.269-4.993.738-3.2 1.024-7.439 3.743-8.979 6.762-.553.937-.698 2.059-.401 3.106z"/><path d="M238.285 23.294c-2.721-5.221-9.16-7.248-14.381-4.526s-7.248 9.16-4.527 14.381 9.16 7.248 14.381 4.527a10.66 10.66 0 0 0 4.527-14.382" class="D"/><path d="M228.855 39.347c-5.63.007-10.378-4.192-11.057-9.781s2.923-10.804 8.39-12.146 11.076 1.612 13.061 6.88-.277 11.189-5.27 13.79c-1.583.824-3.34 1.255-5.124 1.258m-.032-21.319a10.2 10.2 0 0 0-5.266 18.926 10.2 10.2 0 0 0 14.325-13.443c-1.749-3.385-5.249-5.503-9.059-5.483"/><path d="M240.873 54.122c-4.132-3.057-7.615-6.905-10.245-11.321-7.3 9.036-16.553 11.409-25.656 14.413-.739-1.494-1.061-3.16-.934-4.822a16.67 16.67 0 0 1 5.535-12.349c3.164-3.109 7.853-6.142 12.184-7.083 4.223-.765 8.58-.227 12.49 1.543 3.394 1.517 6.26 4.009 8.234 7.159a22.36 22.36 0 0 1 2.6 11.175c-.714-.334-1.535-.352-2.262-.048a6.51 6.51 0 0 0-1.941 1.334" class="D"/><path d="M204.965 57.678c-.173 0-.332-.096-.412-.25a9.75 9.75 0 0 1-.986-5.063c.022-4.829 2.082-9.424 5.672-12.654 2.846-2.8 7.6-6.16 12.412-7.206a21.43 21.43 0 0 1 12.766 1.567 19.1 19.1 0 0 1 8.452 7.344 22.64 22.64 0 0 1 2.667 11.446c-.007.154-.091.295-.223.375s-.295.09-.436.025c-.603-.286-1.299-.297-1.911-.032-.665.3-1.269.72-1.782 1.238-.165.151-.413.164-.593.031a39.4 39.4 0 0 1-10.026-10.895c-6.7 7.977-15.045 10.678-23.125 13.293q-1.163.376-2.324.757a.47.47 0 0 1-.145.024m20.394-24.633a16.51 16.51 0 0 0-3.512.369c-4.616 1-9.2 4.253-11.956 6.961-3.42 3.072-5.382 7.446-5.4 12.043-.106 1.446.138 2.895.71 4.227q.972-.318 1.943-.632c8.5-2.749 16.519-5.346 23.111-13.5a.47.47 0 0 1 .4-.171c.152.011.289.097.366.229a38.27 38.27 0 0 0 9.822 10.955 6.28 6.28 0 0 1 1.812-1.171 3.41 3.41 0 0 1 1.974-.159 21.99 21.99 0 0 0-2.55-10.286 18.4 18.4 0 0 0-8.014-6.973 22.96 22.96 0 0 0-8.7-1.887m3.205 41.894c-.506.003-1.004-.124-1.447-.369-.149-.079-.243-.232-.247-.401s.084-.325.229-.411.325-.086.47-.001c.858.381 1.855.275 2.613-.279 1.042-.702 1.784-1.768 2.082-2.988.071-.24.319-.381.562-.318s.392.306.338.55a5.98 5.98 0 0 1-2.473 3.533 3.9 3.9 0 0 1-2.129.682m2.712-16.062a1.01 1.01 0 1 0-.663 1.221.98.98 0 0 0 .663-1.221m-15.109 3.656a1.01 1.01 0 1 0-.663 1.221.98.98 0 0 0 .663-1.221m8.098 5.234a.5.5 0 0 1-.082-.007l-1.433-.257a.89.89 0 0 1-.689-1.446 5.43 5.43 0 0 0 .019-4.758c-.114-.23-.019-.509.211-.623s.509-.019.623.211c.853 1.763.847 3.821-.017 5.579l-.051.109.069.013 1.432.257c.238.042.404.258.383.499s-.223.425-.464.424m8.199-1.506c-1.058-.007-2.096-.293-3.009-.829-1.51-.886-2.636-2.301-3.161-3.971-1.148-3.538.535-7.265 3.751-8.31s6.768.985 7.917 4.522c.555 1.66.475 3.466-.226 5.07a5.83 5.83 0 0 1-3.526 3.24c-.564.184-1.154.278-1.747.278m-.681-12.454a4.68 4.68 0 0 0-1.45.229c-2.729.886-4.144 4.088-3.154 7.138a6.13 6.13 0 0 0 2.74 3.452 4.82 4.82 0 0 0 6.969-2.262 6.13 6.13 0 0 0 .191-4.4c-.692-2.378-2.825-4.05-5.3-4.154m-15.625 16.294a6.7 6.7 0 0 1-6.183-4.8c-.555-1.66-.475-3.466.226-5.07a5.83 5.83 0 0 1 3.526-3.24c3.217-1.044 6.768.985 7.917 4.522s-.535 7.265-3.751 8.31a5.61 5.61 0 0 1-1.734.275m-.695-12.452a4.68 4.68 0 0 0-1.45.229 4.91 4.91 0 0 0-2.964 2.734 6.13 6.13 0 0 0-.19 4.4c.99 3.05 4.015 4.811 6.746 3.924s4.144-4.088 3.154-7.138a5.77 5.77 0 0 0-5.3-4.154"/><path d="M220.884 61.077c-.22-.001-.41-.155-.454-.371a2.21 2.21 0 0 1 1.494-2.239 4.96 4.96 0 0 1 4.48.184c.204.137.266.41.141.622s-.393.29-.612.178a4 4 0 0 0-3.616-.143c-.541.252-1.068.761-.975 1.209a.46.46 0 0 1-.095.388c-.089.108-.221.171-.361.171m14.797-5.658c-.242-.001-.443-.187-.462-.428s.15-.457.389-.496l4.607-.742c.251-.036.485.136.525.386s-.127.487-.377.532l-4.608.742a.51.51 0 0 1-.074.006m.157-23.07a.47.47 0 0 1-.3-.105 8.44 8.44 0 0 0-3.754-1.668 21.21 21.21 0 0 0-4.265-.31.46.46 0 0 1-.467-.463c-.001-.257.206-.465.463-.467 1.492-.04 2.983.07 4.453.328a9.37 9.37 0 0 1 4.161 1.863c.152.125.209.333.141.518s-.244.308-.441.306"/><path d="M241.808 57.88c-.225 0-.418-.162-.457-.384-.211-1.179-.661-2.302-1.322-3.3-.139-.214-.08-.5.133-.641s.499-.084.642.127c.731 1.106 1.229 2.35 1.463 3.656.044.253-.125.494-.378.539-.027.005-.054.007-.081.007"/><g class="E"><g clip-path="url(#C)" transform="translate(220.828 30.119)"><path d="M.359.919a2.11 2.11 0 0 1 .923-.4A13.81 13.81 0 0 1 2.869.21a19.11 19.11 0 0 1 9.341.986c.785.284 1.535.654 2.3.995a3.14 3.14 0 0 1 1.274.836 1.2 1.2 0 0 1-1.611 1.7A18.49 18.49 0 0 0 7.335 2.5a13.01 13.01 0 0 0-4.126.068l-1.456.23a1.43 1.43 0 0 1-1.219-.069 1.16 1.16 0 0 1-.526-.867A1.16 1.16 0 0 1 .363.913"/></g></g><g class="E"><g clip-path="url(#D)" transform="translate(209.339 42.648)"><path d="M.007 13.674c.053-.357.311-.649.659-.746a15.18 15.18 0 0 1 .859-.26l2.817-.875a52.13 52.13 0 0 0 5.205-2.2c2.099-1.013 4.093-2.229 5.955-3.631 1.826-1.419 3.416-3.118 4.709-5.035.281-.337.488-.852.966-.922a.71.71 0 0 1 .648 1.124C20.22 3.57 18.24 5.742 15.956 7.564c-1.369 1.024-2.799 1.963-4.283 2.811-1.2.637-2.454 1.176-3.7 1.729a61.15 61.15 0 0 1-5.762 2.253l-.965.269a1.03 1.03 0 0 1-.586.017.88.88 0 0 1-.656-.973"/></g></g><g class="E"><g clip-path="url(#E)" transform="translate(227.075 78.057)"><path d="M.563 8.083l-.056-1.09c.018-.692-.021-1.384-.118-2.07Q.329 3.942.27 2.96a.26.26 0 0 0-.078-.177v-.15a.25.25 0 0 0-.2-.272c.316-.44 1-.218 1.514-.166.511.059 1.028.059 1.539 0 1.459-.253 2.89-.648 4.272-1.18q.258-.235.514-.474l1.421-.546.056.173a1.13 1.13 0 0 0 .086.215 1.63 1.63 0 0 0 .1.14l.388.517a.9.9 0 0 1-.1.143L5.307 5.704l-2.16 2.331a6.02 6.02 0 0 1-1.016.9l.012-.006-.022.012-.044.025-.092.05c-.044.025-.089.046-.136.064l-.02.009h.006a.89.89 0 0 1-.254.056c-.316.025-.62-.124-.793-.389-.072-.043-.136-.097-.189-.161L.56 8.079"/></g></g><path d="M223.17 133.447c-1.184-1.92.157-4.454.475-5.429.837-2.572 3.121-6.457 4.455-6.369.569 1.051.777 2.26.59 3.44-.203 1.905-.795 3.748-1.738 5.416-.826 1.457-1.984 2.775-3.782 2.943" class="C"/><path d="M223.169 133.912c-.163.001-.315-.082-.4-.221-1.123-1.822-.242-4.078.231-5.29l.2-.527c.781-2.4 3.154-6.8 4.928-6.688a.46.46 0 0 1 .356.207c.623 1.143.856 2.458.665 3.745a14.53 14.53 0 0 1-1.8 5.6c-1.122 1.982-2.478 3.021-4.143 3.177h-.044m4.686-11.759c-.984.384-2.932 3.439-3.769 6.009l-.215.576c-.417 1.069-1.1 2.814-.447 4.206 1.221-.219 2.22-1.075 3.123-2.669.91-1.613 1.482-3.395 1.68-5.236a5.48 5.48 0 0 0-.372-2.887"/><path d="M258.624 113.107c2.151 7.128 7.675 18.223 8.707 20.439l-39.23-11.9c2.79 5.205-.962 9.841-4.783 11.9 7.7 4.71 52.876 28.488 61.136 13.687 2.685-4.813-.855-16.681-2.366-21.981-2.135-7.484-10.207-26.237-17.069-32.1-3.868 1.469-7.519 4.273-8.682 8.246-1.141 3.9 1.08 7.7 2.287 11.706" class="C"/><path d="M273.622 152.497c-6.389 0-15.1-2.2-26-6.584a192.15 192.15 0 0 1-24.54-11.97c-.142-.087-.227-.243-.222-.409a.47.47 0 0 1 .244-.397c3.975-2.138 7.109-6.577 4.593-11.268-.089-.166-.068-.37.052-.515s.316-.204.496-.148l15.613 4.728 22.6 6.855-.2-.425c-1.857-3.872-6.207-12.939-8.073-19.122-.064-.242.075-.492.315-.564s.494.059.575.296c1.845 6.114 6.173 15.135 8.021 18.988l.662 1.389c.078.167.05.363-.071.502s-.312.192-.488.137l-23.609-7.167-14.62-4.42c1.823 4.6-.971 8.833-4.729 11.151 7.575 4.454 39.848 21.229 54.219 17.461a8.53 8.53 0 0 0 5.594-4.008c2.5-4.479-.7-15.676-2.244-21.056l-.163-.571c-2.2-7.7-10.182-26.123-16.981-32.4-5.755-5.305-19.644-6.665-24.284-6.971-1.507 3.187-5.209 6.262-8.56 5.908-1.861-.266-3.509-1.338-4.507-2.931-5.678 2.719-11.512 5.561-16.016 10.09-6.4 6.437-9.856 18.244-12.379 26.865l-.121.415c-.042.165-.17.294-.335.336s-.339-.009-.456-.133a.46.46 0 0 1-.101-.464l.121-.415c2.693-9.2 6.044-20.655 12.613-27.259 4.715-4.742 10.78-7.644 16.646-10.452.217-.103.477-.024.6.182.827 1.524 2.318 2.575 4.032 2.841 3 .311 6.491-2.726 7.745-5.651.077-.181.26-.293.456-.281 4.359.271 19.058 1.594 25.17 7.236 6.923 6.391 15.023 25.038 17.244 32.828l.163.57c1.7 5.923 4.85 16.95 2.162 21.764a9.42 9.42 0 0 1-6.169 4.455 20.07 20.07 0 0 1-5.071.583m-35.488-57.672c-.208.001-.392-.137-.449-.338s.026-.414.204-.523a8.66 8.66 0 0 0 3.973-6.053c.044-.247.276-.416.524-.38s.424.263.396.513a9.6 9.6 0 0 1-4.4 6.711c-.073.045-.158.069-.244.069"/><path d="M243.933 92.56c-.152 0-.294-.074-.381-.199s-.107-.284-.055-.427l1.283-3.465c.092-.237.357-.356.595-.268s.362.352.277.591l-1.283 3.465c-.069.181-.242.301-.436.3"/><g class="E"><g clip-path="url(#F)" transform="translate(257.595 112.937)"><path d="M5.702 11.412l-1.6-3.589a1.23 1.23 0 0 0-1.117-.908l-.453-1.977-.572-3.219c-.123-.448-.068-.986-.353-1.368C1.344.021.886-.08.509.108S-.063.723.042 1.131c.664 4.113 1.465 10.351 2.586 13.21a1.2 1.2 0 0 0 1.282.76 1.95 1.95 0 0 0 1.42.291l-.077.01c.8.062 1.665-.124 1.684-1.095-.289-1.014-.703-1.988-1.232-2.9"/></g></g><g transform="matrix(.62932 -.777146 .777146 .62932 188.193 113.918)" clip-path="url(#G)"><path d="M18.417 36.352q-3.184-16.323-6.986-32.568a8.54 8.54 0 0 0-1.12-2.912c-.485-.705-1.856-.532-2 .266-.856 4.622-.375 9.132.01 13.92a3.02 3.02 0 0 0-3.416-.157 1.78 1.78 0 0 0-.308 2.745 2.65 2.65 0 0 0-2.653.79c-.527.72-.374 1.73.343 2.262-.882-.419-1.707.648-1.765 1.47-.39 5.561 6.166 9.255 7.054 14.777.067.965.363 1.9.862 2.728.624.531 1.407.838 2.226.87 3.677.4 8.218-1.809 7.754-4.19" class="C"/><path d="M11.542 41.016c2.242.017 4.426-.718 6.2-2.089.848-.599 1.298-1.615 1.171-2.645A891.05 891.05 0 0 0 11.927 3.7 8.9 8.9 0 0 0 10.749.656c-.4-.517-1.059-.762-1.7-.631a1.4 1.4 0 0 0-1.24 1.046c-.8 4.294-.453 8.452-.09 12.855l.025.3a3.67 3.67 0 0 0-3.161.341c-.553.374-.915.97-.993 1.633-.034.32.006.643.118.945A3.01 3.01 0 0 0 1.517 18.2a1.94 1.94 0 0 0-.179 2.074l-.1.043c-.687.364-1.145 1.048-1.22 1.821-.221 3.153 1.7 5.741 3.561 8.244 1.527 2.055 3.106 4.181 3.5 6.616l.02.122c.063 1.006.39 1.978.95 2.817.705.629 1.607.993 2.551 1.029.313.034.628.051.943.05m6.377-4.6h0c.057.751-.285 1.477-.9 1.912-1.794 1.37-4.042 2.008-6.288 1.785-.694-.029-1.36-.28-1.9-.716a5.78 5.78 0 0 1-.732-2.388l-.019-.123c-.421-2.619-2.058-4.824-3.642-6.956-1.857-2.5-3.61-4.858-3.408-7.738.045-.463.304-.878.7-1.122.099-.053.218-.053.317 0 .221.106.486.057.655-.12a.38.38 0 0 0-.061-.564 1.24 1.24 0 0 1-.265-1.72c.524-.576 1.325-.812 2.077-.612.208.059.431-.009.572-.173.124-.153.109-.376-.035-.511-.289-.289-.43-.694-.384-1.1.048-.422.277-.802.627-1.042a2.44 2.44 0 0 1 2.731.124c.159.131.376.166.569.093.184-.056.307-.228.3-.42l-.095-1.162C8.37 9.513 8.031 5.4 8.808 1.2c.048-.254.342-.32.43-.334.236-.05.481.035.636.22a8.25 8.25 0 0 1 1.061 2.781c2.522 10.77 4.872 21.724 6.984 32.554"/></g></svg>