<svg xmlns="http://www.w3.org/2000/svg" xmlns:xlink="http://www.w3.org/1999/xlink" width="140" height="140" viewBox="0 0 140 140"><defs><clipPath id="a"><circle cx="70" cy="70" r="70" transform="translate(897 124)" fill="#ecf0f5"/></clipPath></defs><g transform="translate(-808 -196)"><circle cx="70" cy="70" r="70" transform="translate(808 196)" fill="#ecf0f5"/><g transform="translate(-89 72)" clip-path="url(#a)"><g transform="translate(-3 5.824)"><g transform="translate(922 156.176)" fill="#fff" stroke="#cfdbe8" stroke-width="1"><rect width="97" height="23" stroke="none"/><rect x="0.5" y="0.5" width="96" height="22" fill="none"/></g><g transform="translate(922 178.176)" fill="#fff" stroke="#cfdbe8" stroke-width="1"><rect width="97" height="23" stroke="none"/><rect x="0.5" y="0.5" width="96" height="22" fill="none"/></g><g transform="translate(922 200.176)" fill="#fff" stroke="#cfdbe8" stroke-width="1"><rect width="97" height="24" stroke="none"/><rect x="0.5" y="0.5" width="96" height="23" fill="none"/></g><g transform="translate(922 222.176)" fill="#fff" stroke="#cfdbe8" stroke-width="1"><rect width="97" height="24" stroke="none"/><rect x="0.5" y="0.5" width="96" height="23" fill="none"/></g><g transform="translate(922 245.176)" fill="#fff" stroke="#cfdbe8" stroke-width="1"><rect width="97" height="23" stroke="none"/><rect x="0.5" y="0.5" width="96" height="22" fill="none"/></g><g transform="translate(1004.011 186.368)"><path d="M10.079,8.914V6H8.914V8.914H6v1.165H8.914v2.914h1.165V10.079h2.914V8.914Z" transform="translate(-6 -6)" fill="#2c51c2"/></g><g transform="translate(1004.011 208.592)"><path d="M10.079,8.914V6H8.914V8.914H6v1.165H8.914v2.914h1.165V10.079h2.914V8.914Z" transform="translate(-6 -6)" fill="#2c51c2"/></g><g transform="translate(1004.011 230.815)"><path d="M10.079,8.914V6H8.914V8.914H6v1.165H8.914v2.914h1.165V10.079h2.914V8.914Z" transform="translate(-6 -6)" fill="#2c51c2"/></g><g transform="translate(1004.011 251.98)"><path d="M10.079,8.914V6H8.914V8.914H6v1.165H8.914v2.914h1.165V10.079h2.914V8.914Z" transform="translate(-6 -6)" fill="#2c51c2"/></g><g transform="translate(929.408 163.029)"><path d="M9.192,8.65l-2.4-2.4a3.845,3.845,0,1,0-.543.543l2.4,2.4ZM3.819,6.889A3.071,3.071,0,1,1,6.889,3.819,3.071,3.071,0,0,1,3.819,6.889Z" transform="translate(0.032 0.032)" fill="#6d7894"/></g><rect width="66" height="8" rx="4" transform="translate(943 163.176)" fill="#ecf0f5"/><rect width="66" height="6" rx="3" transform="translate(929 187.176)" fill="#ecf0f5"/><rect width="66" height="6" rx="3" transform="translate(929 209.176)" fill="#ecf0f5"/><rect width="66" height="6" rx="3" transform="translate(929 231.176)" fill="#ecf0f5"/><rect width="66" height="6" transform="translate(929 252.176)" fill="#ecf0f5"/></g></g></g></svg>